<svg width="177" height="219" viewBox="0 0 177 219" fill="none" xmlns="http://www.w3.org/2000/svg">
<path d="M4 46.1713H116.457V53.1999H4V46.1713Z" fill="white"/>
<path d="M102.4 18.0571H18.0571C10.3257 18.0571 4 24.3828 4 32.1142V46.1713H116.457V32.1142C116.457 24.3828 110.131 18.0571 102.4 18.0571ZM18.0571 214.856H102.4C110.131 214.856 116.457 208.531 116.457 200.799V186.742H4V200.799C4 208.531 10.3257 214.856 18.0571 214.856Z" fill="#55626D"/>
<path d="M102.4 18.0571H18.0571C10.3257 18.0571 4 24.3828 4 32.1142V39.1427C4 31.4113 10.3257 25.0856 18.0571 25.0856H102.4C110.131 25.0856 116.457 31.4113 116.457 39.1427V32.1142C116.457 24.3828 110.131 18.0571 102.4 18.0571Z" fill="#66757F"/>
<path d="M18.0571 214.856H102.4C110.131 214.856 116.457 208.531 116.457 200.799V193.771C116.457 201.502 110.131 207.828 102.4 207.828H18.0571C10.3257 207.828 4 201.502 4 193.771V200.799C4 208.531 10.3257 214.856 18.0571 214.856ZM4 39.1427H116.457V46.1713H4V39.1427Z" fill="#3F4B54"/>
<path d="M4 186.742H116.457V193.771H4V186.742Z" fill="#66757F"/>
<path d="M4 46.1713H116.457V53.1999H4V46.1713Z" fill="white"/>
<path d="M4 46.1713H116.457V186.742H4V116.457V46.1713Z" fill="#41CCF3"/>
<path d="M4 179.714H116.457V186.742H4V179.714Z" fill="#13C0F0"/>
<path d="M4 46.1713H116.457V53.1999H4V46.1713Z" fill="#13C0F0"/>
<path d="M172.542 74.2855C172.542 82.0169 166.216 88.3426 158.485 88.3426H116.313L88.1992 116.457V88.3426H74.1421C66.4107 88.3426 60.085 82.0169 60.085 74.2855V18.0571C60.085 10.3257 66.4107 4 74.1421 4H158.485C166.216 4 172.542 10.3257 172.542 18.0571V74.2855Z" fill="#A7E0F9"/>
<path d="M158.485 81.314H109.285L95.2277 95.3712V81.314H74.1421C66.4107 81.314 60.085 74.9884 60.085 67.2569V74.2855C60.085 82.0169 66.4107 88.3426 74.1421 88.3426H88.1992V116.457L116.313 88.3426H158.485C166.216 88.3426 172.542 82.0169 172.542 74.2855V67.2569C172.542 74.9884 166.216 81.314 158.485 81.314Z" fill="#65B0E1"/>
<path d="M158.485 4H74.1421C66.4107 4 60.085 10.3257 60.085 18.0571V25.0856C60.085 17.3542 66.4107 11.0285 74.1421 11.0285H158.485C166.216 11.0285 172.542 17.3542 172.542 25.0856V18.0571C172.542 10.3257 166.216 4 158.485 4Z" fill="#65B0E1"/>
<path d="M32.1142 18.0571H18.0571C10.3257 18.0571 4 24.3828 4 32.1142V200.799C4 208.531 10.3257 214.856 18.0571 214.856H102.4C110.131 214.856 116.457 208.531 116.457 200.799V116.457M4 46.1713H32.1142M4 186.742H116.457M60.2284 200.799V200.799Z" stroke="#31393F" stroke-width="8" stroke-linecap="round" stroke-linejoin="round"/>
<path d="M172.542 74.2855C172.542 82.0169 166.216 88.3426 158.485 88.3426H116.313L88.1992 116.457V88.3426H74.1421C66.4107 88.3426 60.085 82.0169 60.085 74.2855V18.0571C60.085 10.3257 66.4107 4 74.1421 4H158.485C166.216 4 172.542 10.3257 172.542 18.0571V74.2855Z" stroke="#31393F" stroke-width="8" stroke-linecap="round" stroke-linejoin="round"/>
<path d="M123.342 32.1142H109.285M116.313 60.2284V32.1142M137.399 46.1713H144.428C148.309 46.1713 151.456 43.0246 151.456 39.1427C151.456 35.2609 148.309 32.1142 144.428 32.1142H137.399V60.2284M95.2277 53.1998C95.2277 57.0817 92.0811 60.2284 88.1992 60.2284C84.3173 60.2284 81.1707 57.0817 81.1707 53.1998V39.1427C81.1707 35.2609 84.3173 32.1142 88.1992 32.1142C92.0811 32.1142 95.2277 35.2609 95.2277 39.1427V53.1998Z" stroke="#294A85" stroke-width="4" stroke-linecap="round" stroke-linejoin="round"/>
</svg>
