<svg width="282" height="77" viewBox="0 0 282 77" fill="none" xmlns="http://www.w3.org/2000/svg">
<path d="M11.981 27.7753H1.82522V-0.000366211H12.0706C14.952 -0.000366211 17.4336 0.55344 19.5153 1.66103C21.5971 2.76862 23.2001 4.35813 24.3244 6.42957C25.4487 8.501 26.0109 10.9798 26.0109 13.8658C26.0109 16.7591 25.4482 19.2451 24.323 21.3237C23.1977 23.4024 21.5872 24.9973 19.4915 26.1085C17.3957 27.2197 14.8922 27.7753 11.981 27.7753ZM7.88284 22.7411H11.7233C13.5225 22.7411 15.0346 22.431 16.2597 21.8107C17.4848 21.1904 18.4086 20.2275 19.031 18.9218C19.6534 17.6162 19.9646 15.9308 19.9646 13.8658C19.9646 11.8079 19.6525 10.1289 19.0283 8.82871C18.4041 7.52857 17.4821 6.57105 16.2626 5.95615C15.043 5.34126 13.5374 5.0338 11.7459 5.0338H7.88284V22.7411ZM39.1005 28.1766C36.9244 28.1766 35.0461 27.7277 33.4655 26.8299C31.8848 25.9321 30.6653 24.6772 29.8068 23.0651C28.9484 21.453 28.5191 19.5764 28.5191 17.4353C28.5191 15.2871 28.9484 13.4051 29.8068 11.7893C30.6653 10.1736 31.8848 8.9168 33.4655 8.019C35.0461 7.1212 36.9244 6.6723 39.1005 6.6723C41.2765 6.6723 43.1548 7.1212 44.7355 8.019C46.3161 8.9168 47.5357 10.1736 48.3941 11.7893C49.2526 13.4051 49.6818 15.2871 49.6818 17.4353C49.6818 19.5764 49.2526 21.453 48.3941 23.0651C47.5357 24.6772 46.3161 25.9321 44.7355 26.8299C43.1548 27.7277 41.2765 28.1766 39.1005 28.1766ZM39.1341 23.7066C40.1156 23.7066 40.9395 23.4326 41.6058 22.8847C42.2721 22.3368 42.7751 21.5881 43.1147 20.6387C43.4543 19.6894 43.6242 18.6108 43.6242 17.4029C43.6242 16.1895 43.4543 15.1076 43.1147 14.1573C42.7751 13.207 42.2721 12.4561 41.6058 11.9046C40.9395 11.3531 40.1156 11.0773 39.1341 11.0773C38.13 11.0773 37.2893 11.3531 36.6118 11.9046C35.9344 12.4561 35.4258 13.207 35.0862 14.1573C34.7466 15.1076 34.5768 16.1895 34.5768 17.4029C34.5768 18.6108 34.7466 19.6894 35.0862 20.6387C35.4258 21.5881 35.9344 22.3368 36.6118 22.8847C37.2893 23.4326 38.13 23.7066 39.1341 23.7066ZM58.5499 15.7319V27.7753H52.5931V6.94355H58.27V10.6217H58.5162C58.9976 9.40645 59.7978 8.44441 60.9166 7.73557C62.0354 7.02673 63.3927 6.6723 64.9883 6.6723C66.483 6.6723 67.786 6.98922 68.8973 7.62305C70.0087 8.25687 70.8718 9.15877 71.4867 10.3287C72.1016 11.4987 72.4062 12.8911 72.4007 14.5058V27.7753H66.4439V15.5366C66.4494 14.2635 66.113 13.2672 65.4347 12.5474C64.7564 11.8277 63.8201 11.4679 62.6257 11.4679C61.8232 11.4679 61.1155 11.6365 60.5024 11.9737C59.8893 12.3109 59.412 12.7974 59.0705 13.433C58.729 14.0687 58.5554 14.835 58.5499 15.7319ZM81.1121 -0.000366211V2.92911C81.1121 3.75726 80.9465 4.60307 80.6153 5.46653C80.284 6.33 79.8436 7.14465 79.2939 7.9105C78.7443 8.67635 78.141 9.32692 77.4842 9.86221L74.8529 8.35403C75.3232 7.63792 75.7375 6.84586 76.0958 5.97787C76.4541 5.10989 76.6333 4.10083 76.6333 2.95073V-0.000366211H81.1121ZM96.2842 6.94355V11.2835H83.329V6.94355H96.2842ZM86.2739 1.95262H92.2307V21.3684C92.2307 21.9036 92.3166 22.3191 92.4882 22.6148C92.6599 22.9105 92.8969 23.1166 93.1993 23.2333C93.5017 23.3499 93.8507 23.4082 94.2462 23.4082C94.5318 23.4082 94.815 23.3838 95.0958 23.335C95.3766 23.2862 95.5899 23.2455 95.7355 23.213L96.6761 27.5203C96.3793 27.6126 95.9589 27.7193 95.4149 27.8404C94.8709 27.9616 94.2127 28.0357 93.4401 28.0628C92.0031 28.1171 90.7453 27.9322 89.6666 27.5082C88.588 27.0841 87.75 26.4227 87.1529 25.5239C86.5557 24.6251 86.2627 23.4968 86.2739 22.1389V1.95262ZM107.437 27.7753V-0.000366211H118.734C120.91 -0.000366211 122.764 0.400188 124.294 1.20129C125.824 2.00238 126.993 3.11089 127.801 4.52682C128.609 5.94273 129.014 7.56926 129.014 9.40639C129.014 11.2545 128.603 12.8829 127.783 14.2916C126.963 15.7002 125.776 16.7988 124.223 17.5872C122.669 18.3757 120.791 18.7699 118.589 18.7699H111.378V14.061H117.604C118.768 14.061 119.732 13.8644 120.494 13.4711C121.256 13.0777 121.827 12.5312 122.207 11.8314C122.587 11.1316 122.777 10.3233 122.777 9.40639C122.777 8.48415 122.587 7.6781 122.207 6.98826C121.827 6.29842 121.254 5.76225 120.488 5.37975C119.722 4.99725 118.753 4.806 117.581 4.806H113.494V27.7753H107.437ZM141.218 28.1766C139.042 28.1766 137.164 27.7277 135.583 26.8299C134.003 25.9321 132.783 24.6772 131.925 23.0651C131.066 21.453 130.637 19.5764 130.637 17.4353C130.637 15.2871 131.066 13.4051 131.925 11.7893C132.783 10.1736 134.003 8.9168 135.583 8.019C137.164 7.1212 139.042 6.6723 141.218 6.6723C143.394 6.6723 145.273 7.1212 146.853 8.019C148.434 8.9168 149.654 10.1736 150.512 11.7893C151.37 13.4051 151.8 15.2871 151.8 17.4353C151.8 19.5764 151.37 21.453 150.512 23.0651C149.654 24.6772 148.434 25.9321 146.853 26.8299C145.273 27.7277 143.394 28.1766 141.218 28.1766ZM141.252 23.7066C142.234 23.7066 143.057 23.4326 143.724 22.8847C144.39 22.3368 144.893 21.5881 145.233 20.6387C145.572 19.6894 145.742 18.6108 145.742 17.4029C145.742 16.1895 145.572 15.1076 145.233 14.1573C144.893 13.207 144.39 12.4561 143.724 11.9046C143.057 11.3531 142.234 11.0773 141.252 11.0773C140.248 11.0773 139.407 11.3531 138.73 11.9046C138.052 12.4561 137.544 13.207 137.204 14.1573C136.865 15.1076 136.695 16.1895 136.695 17.4029C136.695 18.6108 136.865 19.6894 137.204 20.6387C137.544 21.5881 138.052 22.3368 138.73 22.8847C139.407 23.4326 140.248 23.7066 141.252 23.7066ZM172.593 12.8783L167.14 13.2038C167.043 12.7573 166.841 12.3504 166.535 11.9833C166.229 11.6162 165.826 11.3228 165.324 11.1031C164.823 10.8833 164.227 10.7734 163.534 10.7734C162.61 10.7734 161.831 10.9606 161.197 11.335C160.562 11.7094 160.248 12.2057 160.253 12.8241C160.248 13.3269 160.45 13.7492 160.859 14.0909C161.269 14.4326 161.974 14.7084 162.974 14.9182L166.871 15.6777C168.961 16.0918 170.518 16.7595 171.542 17.6809C172.565 18.6023 173.08 19.8152 173.085 21.3196C173.08 22.6867 172.666 23.8852 171.844 24.915C171.022 25.9448 169.893 26.7459 168.457 27.3182C167.021 27.8905 165.372 28.1766 163.512 28.1766C160.664 28.1766 158.397 27.6016 156.711 26.4516C155.025 25.3015 154.041 23.7319 153.759 21.7428L159.615 21.4389C159.796 22.2835 160.226 22.925 160.904 23.3635C161.583 23.802 162.456 24.0213 163.523 24.0213C164.564 24.0213 165.406 23.8233 166.047 23.4273C166.688 23.0313 167.011 22.524 167.017 21.9055C167.011 21.3775 166.785 20.9444 166.338 20.6062C165.891 20.2681 165.199 20.0068 164.262 19.8223L160.545 19.1062C158.441 18.703 156.878 17.9987 155.856 16.9932C154.833 15.9878 154.325 14.7066 154.33 13.1496C154.325 11.8114 154.698 10.6591 155.451 9.69257C156.204 8.72605 157.265 7.98103 158.634 7.45754C160.003 6.93405 161.603 6.6723 163.433 6.6723C166.149 6.6723 168.289 7.22745 169.854 8.33772C171.418 9.44799 172.332 10.9615 172.593 12.8783ZM187.306 6.94355V11.2835H174.351V6.94355H187.306ZM177.296 1.95262H183.252V21.3684C183.252 21.9036 183.338 22.3191 183.51 22.6148C183.682 22.9105 183.919 23.1166 184.221 23.2333C184.523 23.3499 184.872 23.4082 185.268 23.4082C185.553 23.4082 185.837 23.3838 186.117 23.335C186.398 23.2862 186.611 23.2455 186.757 23.213L187.698 27.5203C187.401 27.6126 186.98 27.7193 186.437 27.8404C185.893 27.9616 185.234 28.0357 184.462 28.0628C183.025 28.1171 181.767 27.9322 180.688 27.5082C179.61 27.0841 178.772 26.4227 178.174 25.5239C177.577 24.6251 177.284 23.4968 177.296 22.1389V1.95262ZM190.195 35.5872V6.94355H196.073V10.4481H196.331C196.596 9.88022 196.977 9.30558 197.475 8.72424C197.974 8.1429 198.627 7.65557 199.435 7.26226C200.243 6.86896 201.246 6.6723 202.444 6.6723C204.019 6.6723 205.468 7.06741 206.79 7.85763C208.112 8.64785 209.17 9.83681 209.965 11.4245C210.759 13.0122 211.156 14.9977 211.156 17.381C211.156 19.7065 210.77 21.6668 209.998 23.2617C209.226 24.8566 208.181 26.0636 206.863 26.8828C205.544 27.702 204.068 28.1116 202.433 28.1116C201.276 28.1116 200.295 27.9258 199.49 27.5541C198.684 27.1825 198.025 26.7151 197.513 26.1518C197.001 25.5886 196.607 25.0194 196.331 24.4445H196.152V35.5872H190.195ZM196.028 17.3594C196.028 18.5963 196.206 19.6754 196.561 20.5968C196.917 21.5182 197.43 22.2343 198.101 22.7451C198.772 23.256 199.585 23.5114 200.541 23.5114C201.519 23.5114 202.343 23.2515 203.014 22.7316C203.685 22.2117 204.194 21.4892 204.542 20.5643C204.89 19.6393 205.064 18.571 205.064 17.3594C205.064 16.155 204.892 15.0958 204.548 14.1817C204.204 13.2676 203.696 12.5542 203.025 12.0415C202.354 11.5288 201.526 11.2725 200.541 11.2725C199.578 11.2725 198.761 11.5216 198.09 12.0198C197.419 12.518 196.908 13.2223 196.556 14.1329C196.204 15.0434 196.028 16.1189 196.028 17.3594ZM223.842 28.1766C221.666 28.1766 219.788 27.7277 218.207 26.8299C216.626 25.9321 215.407 24.6772 214.548 23.0651C213.69 21.453 213.261 19.5764 213.261 17.4353C213.261 15.2871 213.69 13.4051 214.548 11.7893C215.407 10.1736 216.626 8.9168 218.207 8.019C219.788 7.1212 221.666 6.6723 223.842 6.6723C226.018 6.6723 227.896 7.1212 229.477 8.019C231.058 8.9168 232.277 10.1736 233.136 11.7893C233.994 13.4051 234.423 15.2871 234.423 17.4353C234.423 19.5764 233.994 21.453 233.136 23.0651C232.277 24.6772 231.058 25.9321 229.477 26.8299C227.896 27.7277 226.018 28.1766 223.842 28.1766ZM223.876 23.7066C224.857 23.7066 225.681 23.4326 226.347 22.8847C227.014 22.3368 227.517 21.5881 227.856 20.6387C228.196 19.6894 228.366 18.6108 228.366 17.4029C228.366 16.1895 228.196 15.1076 227.856 14.1573C227.517 13.207 227.014 12.4561 226.347 11.9046C225.681 11.3531 224.857 11.0773 223.876 11.0773C222.872 11.0773 222.031 11.3531 221.353 11.9046C220.676 12.4561 220.167 13.207 219.828 14.1573C219.488 15.1076 219.318 16.1895 219.318 17.4029C219.318 18.6108 219.488 19.6894 219.828 20.6387C220.167 21.5881 220.676 22.3368 221.353 22.8847C222.031 23.4326 222.872 23.7066 223.876 23.7066ZM243.291 15.7319V27.7753H237.335V6.94355H243.012V10.6217H243.258C243.739 9.40645 244.539 8.44441 245.658 7.73557C246.777 7.02673 248.134 6.6723 249.73 6.6723C251.225 6.6723 252.528 6.98922 253.639 7.62305C254.75 8.25687 255.613 9.15877 256.228 10.3287C256.843 11.4987 257.148 12.8911 257.142 14.5058V27.7753H251.185V15.5366C251.191 14.2635 250.855 13.2672 250.176 12.5474C249.498 11.8277 248.562 11.4679 247.367 11.4679C246.565 11.4679 245.857 11.6365 245.244 11.9737C244.631 12.3109 244.154 12.7974 243.812 13.433C243.471 14.0687 243.297 14.835 243.291 15.7319ZM270.646 28.1766C268.44 28.1766 266.541 27.7422 264.948 26.8734C263.355 26.0045 262.13 24.7677 261.273 23.1628C260.415 21.5579 259.986 19.656 259.986 17.4571C259.986 15.3124 260.417 13.4309 261.277 11.8124C262.137 10.194 263.347 8.93269 264.908 8.02853C266.468 7.12438 268.302 6.6723 270.411 6.6723C271.833 6.6723 273.157 6.89111 274.383 7.3287C275.609 7.7663 276.681 8.42499 277.6 9.30478C278.518 10.1846 279.234 11.2863 279.749 12.61C280.264 13.9336 280.522 15.4806 280.522 17.2509V18.835H262.371V15.2545H274.912C274.907 14.4263 274.717 13.6908 274.343 13.048C273.968 12.4051 273.452 11.8997 272.795 11.5316C272.137 11.1636 271.376 10.9796 270.512 10.9796C269.61 10.9796 268.811 11.1826 268.115 11.5885C267.419 11.9945 266.875 12.5338 266.482 13.2066C266.089 13.8793 265.887 14.6271 265.876 15.4499V18.8566C265.876 19.8874 266.076 20.7781 266.475 21.5286C266.874 22.279 267.438 22.8567 268.166 23.2618C268.894 23.6668 269.754 23.8693 270.747 23.8693C271.413 23.8693 272.02 23.778 272.568 23.5954C273.116 23.4128 273.587 23.142 273.983 22.7831C274.379 22.4241 274.677 21.9833 274.879 21.4607L280.388 21.8079C280.108 23.0954 279.537 24.2161 278.677 25.17C277.817 26.1239 276.707 26.8635 275.348 27.3887C273.988 27.914 272.421 28.1766 270.646 28.1766ZM5.38579 76.9996C4.62998 76.9996 3.92363 76.9431 3.26675 76.8301C2.60986 76.7171 2.06586 76.5765 1.63474 76.4084L2.9784 72.0901C3.68012 72.2999 4.31229 72.4129 4.87492 72.4291C5.43755 72.4454 5.92837 72.3179 6.34739 72.0466C6.76641 71.7754 7.10655 71.3143 7.36782 70.6633L7.71489 69.7845L0 48.356H6.27041L10.727 63.6543H10.9509L15.4409 48.356H21.7448L13.3918 71.4446C12.9924 72.5639 12.4489 73.5408 11.7612 74.3753C11.0734 75.2098 10.2089 75.8558 9.16756 76.3134C8.12621 76.7709 6.86562 76.9996 5.38579 76.9996ZM32.8076 69.5891C30.6316 69.5891 28.7533 69.1402 27.1726 68.2424C25.592 67.3446 24.3724 66.0897 23.514 64.4776C22.6555 62.8655 22.2263 60.9889 22.2263 58.8477C22.2263 56.6995 22.6555 54.8175 23.514 53.2018C24.3724 51.586 25.592 50.3293 27.1726 49.4315C28.7533 48.5337 30.6316 48.0848 32.8076 48.0848C34.9836 48.0848 36.862 48.5337 38.4426 49.4315C40.0233 50.3293 41.2428 51.586 42.1013 53.2018C42.9597 54.8175 43.3889 56.6995 43.3889 58.8477C43.3889 60.9889 42.9597 62.8655 42.1013 64.4776C41.2428 66.0897 40.0233 67.3446 38.4426 68.2424C36.862 69.1402 34.9836 69.5891 32.8076 69.5891ZM32.8413 65.119C33.8228 65.119 34.6467 64.8451 35.313 64.2971C35.9793 63.7492 36.4822 63.0006 36.8219 62.0512C37.1615 61.1018 37.3313 60.0232 37.3313 58.8153C37.3313 57.6019 37.1615 56.5201 36.8219 55.5698C36.4822 54.6195 35.9793 53.8686 35.313 53.3171C34.6467 52.7655 33.8228 52.4898 32.8413 52.4898C31.8372 52.4898 30.9964 52.7655 30.319 53.3171C29.6415 53.8686 29.133 54.6195 28.7934 55.5698C28.4537 56.5201 28.2839 57.6019 28.2839 58.8153C28.2839 60.0232 28.4537 61.1018 28.7934 62.0512C29.133 63.0006 29.6415 63.7492 30.319 64.2971C30.9964 64.8451 31.8372 65.119 32.8413 65.119ZM60.0839 60.3125V48.356H66.0407V69.1877H60.319V65.4011H60.0951C59.6137 66.6217 58.8103 67.6032 57.685 68.3455C56.5596 69.0878 55.1908 69.459 53.5784 69.459C52.1395 69.459 50.8738 69.1434 49.7811 68.5124C48.6884 67.8813 47.8365 66.9808 47.2253 65.8107C46.6142 64.6407 46.3058 63.2456 46.3003 61.6255V48.356H52.2571V60.5947C52.2626 61.8207 52.6027 62.7908 53.2774 63.5051C53.9521 64.2194 54.8548 64.5766 55.9856 64.5766C56.7004 64.5766 57.37 64.4152 57.9942 64.0924C58.6184 63.7697 59.1241 63.2923 59.5114 62.6602C59.8986 62.0282 60.0895 61.2456 60.0839 60.3125ZM69.8254 69.1877V48.356H75.6029V51.9907H75.8268C76.2187 50.6996 76.8761 49.7222 77.799 49.0586C78.7219 48.395 79.7852 48.0632 80.9889 48.0632C81.2875 48.0632 81.6089 48.0799 81.9532 48.1133C82.2975 48.1467 82.5994 48.1941 82.8587 48.2556V53.3902C82.5845 53.3034 82.2001 53.2293 81.7056 53.1679C81.211 53.1064 80.7556 53.0757 80.3394 53.0757C79.4679 53.0757 78.6884 53.2588 78.0007 53.625C77.3129 53.9912 76.7713 54.4993 76.3756 55.1494C75.98 55.7994 75.7822 56.5513 75.7822 57.4048V69.1877H69.8254ZM92.1189 46.2511V41.4121H115.666V46.2511H106.888V69.1877H100.897V46.2511H92.1189ZM116.226 69.1877V48.356H122.004V51.9907H122.228C122.62 50.6996 123.277 49.7222 124.2 49.0586C125.123 48.395 126.186 48.0632 127.39 48.0632C127.688 48.0632 128.01 48.0799 128.354 48.1133C128.699 48.1467 129 48.1941 129.26 48.2556V53.3902C128.985 53.3034 128.601 53.2293 128.107 53.1679C127.612 53.1064 127.157 53.0757 126.74 53.0757C125.869 53.0757 125.089 53.2588 124.402 53.625C123.714 53.9912 123.172 54.4993 122.777 55.1494C122.381 55.7994 122.183 56.5513 122.183 57.4048V69.1877H116.226ZM140.132 69.5891C137.926 69.5891 136.027 69.1547 134.434 68.2858C132.841 67.417 131.616 66.1802 130.759 64.5753C129.901 62.9704 129.473 61.0685 129.473 58.8696C129.473 56.7249 129.903 54.8433 130.763 53.2249C131.623 51.6064 132.834 50.3452 134.394 49.441C135.954 48.5368 137.788 48.0848 139.897 48.0848C141.319 48.0848 142.643 48.3036 143.869 48.7412C145.095 49.1788 146.167 49.8375 147.086 50.7172C148.004 51.597 148.72 52.6987 149.236 54.0224C149.751 55.3461 150.008 56.8931 150.008 58.6634V60.2474H131.858V56.667H144.398C144.393 55.8388 144.203 55.1033 143.829 54.4604C143.455 53.8176 142.939 53.3121 142.281 52.9441C141.623 52.5761 140.862 52.3921 139.998 52.3921C139.096 52.3921 138.298 52.5951 137.601 53.001C136.905 53.407 136.361 53.9463 135.968 54.619C135.575 55.2918 135.373 56.0396 135.362 56.8623V60.269C135.362 61.2999 135.562 62.1906 135.961 62.941C136.361 63.6915 136.924 64.2692 137.652 64.6742C138.38 65.0793 139.24 65.2818 140.233 65.2818C140.899 65.2818 141.506 65.1905 142.054 65.0079C142.602 64.8253 143.073 64.5545 143.469 64.1955C143.865 63.8366 144.163 63.3958 144.365 62.8732L149.874 63.2203C149.594 64.5079 149.024 65.6286 148.163 66.5825C147.303 67.5364 146.193 68.276 144.834 68.8012C143.474 69.3265 141.907 69.5891 140.132 69.5891ZM159.044 69.5783C157.676 69.5783 156.455 69.3464 155.381 68.8826C154.307 68.4188 153.461 67.7276 152.841 66.8089C152.221 65.8903 151.912 64.7447 151.912 63.3723C151.912 62.2113 152.129 61.2388 152.564 60.455C152.999 59.6711 153.594 59.0396 154.35 58.5604C155.106 58.0812 155.967 57.7177 156.935 57.4699C157.903 57.2221 158.919 57.0485 159.985 56.949C161.23 56.8298 162.235 56.7137 163.001 56.6006C163.767 56.4876 164.324 56.3176 164.671 56.0907C165.018 55.8637 165.191 55.5278 165.191 55.0829V55.0071C165.191 54.1463 164.912 53.4808 164.355 53.0106C163.797 52.5405 163.012 52.3054 162 52.3054C160.927 52.3054 160.073 52.5328 159.437 52.9875C158.802 53.4423 158.383 54.0142 158.182 54.7032L152.662 54.2692C152.942 53.0034 153.492 51.9071 154.312 50.9803C155.132 50.0536 156.194 49.3393 157.496 48.8375C158.799 48.3357 160.308 48.0848 162.023 48.0848C163.223 48.0848 164.369 48.2208 165.463 48.493C166.556 48.7652 167.53 49.1847 168.383 49.7516C169.235 50.3184 169.91 51.0471 170.405 51.9377C170.901 52.8283 171.148 53.8948 171.148 55.1372V69.1877H165.494V66.3017H165.326C164.979 66.949 164.517 67.5195 163.942 68.0132C163.366 68.5069 162.671 68.8912 161.856 69.166C161.042 69.4409 160.104 69.5783 159.044 69.5783ZM160.757 65.5965C161.633 65.5965 162.406 65.4265 163.077 65.0865C163.747 64.7465 164.273 64.2863 164.654 63.7058C165.035 63.1253 165.225 62.4716 165.225 61.7448V59.5314C165.046 59.6452 164.794 59.7501 164.468 59.846C164.142 59.9418 163.78 60.0277 163.382 60.1036C162.983 60.1796 162.584 60.2474 162.184 60.3071C161.783 60.3668 161.42 60.4192 161.093 60.4644C160.392 60.562 159.779 60.7198 159.256 60.9377C158.732 61.1556 158.325 61.4477 158.035 61.8139C157.745 62.18 157.6 62.6344 157.6 63.1769C157.6 63.969 157.896 64.5703 158.49 64.9808C159.083 65.3912 159.839 65.5965 160.757 65.5965ZM186.231 48.356V52.696H173.276V48.356H186.231ZM176.221 43.3651H182.177V62.7808C182.177 63.3161 182.263 63.7316 182.435 64.0273C182.607 64.323 182.844 64.5291 183.146 64.6457C183.448 64.7624 183.797 64.8207 184.193 64.8207C184.479 64.8207 184.762 64.7963 185.042 64.7475C185.323 64.6986 185.537 64.658 185.682 64.6255L186.623 68.9328C186.326 69.0251 185.906 69.1318 185.362 69.2529C184.818 69.374 184.159 69.4482 183.387 69.4753C181.95 69.5296 180.692 69.3447 179.613 68.9206C178.535 68.4966 177.697 67.8352 177.1 66.9364C176.502 66.0376 176.209 64.9092 176.221 63.5513V43.3651ZM189.12 69.1877V48.356H194.797V52.0342H195.043C195.491 50.808 196.239 49.8433 197.288 49.1399C198.337 48.4365 199.589 48.0848 201.045 48.0848C202.519 48.0848 203.773 48.4406 204.807 49.1522C205.841 49.8638 206.531 50.8244 206.878 52.0342H207.102C207.541 50.8388 208.336 49.8818 209.487 49.163C210.639 48.4442 212.001 48.0848 213.574 48.0848C215.58 48.0848 217.213 48.7023 218.471 49.9374C219.73 51.1725 220.36 52.9202 220.36 55.1806V69.1877H214.403V56.3199C214.403 55.157 214.087 54.2876 213.454 53.7116C212.821 53.1357 212.029 52.8477 211.077 52.8477C209.997 52.8477 209.152 53.18 208.542 53.8446C207.933 54.5092 207.629 55.3849 207.629 56.4716V69.1877H201.851V56.1895C201.851 55.1678 201.549 54.3554 200.947 53.7523C200.344 53.1492 199.552 52.8477 198.57 52.8477C197.908 52.8477 197.313 53.0068 196.787 53.3251C196.261 53.6434 195.844 54.0905 195.537 54.6665C195.23 55.2425 195.077 55.9165 195.077 56.6886V69.1877H189.12ZM233.863 69.5891C231.658 69.5891 229.758 69.1547 228.165 68.2858C226.573 67.417 225.348 66.1802 224.49 64.5753C223.632 62.9704 223.204 61.0685 223.204 58.8696C223.204 56.7249 223.634 54.8433 224.494 53.2249C225.355 51.6064 226.565 50.3452 228.125 49.441C229.685 48.5368 231.519 48.0848 233.628 48.0848C235.05 48.0848 236.374 48.3036 237.601 48.7412C238.827 49.1788 239.899 49.8375 240.817 50.7172C241.735 51.597 242.452 52.6987 242.967 54.0224C243.482 55.3461 243.739 56.8931 243.739 58.6634V60.2474H225.589V56.667H238.13C238.124 55.8388 237.934 55.1033 237.56 54.4604C237.186 53.8176 236.67 53.3121 236.012 52.9441C235.354 52.5761 234.593 52.3921 233.729 52.3921C232.828 52.3921 232.029 52.5951 231.333 53.001C230.637 53.407 230.092 53.9463 229.699 54.619C229.307 55.2918 229.105 56.0396 229.093 56.8623V60.269C229.093 61.2999 229.293 62.1906 229.692 62.941C230.092 63.6915 230.655 64.2692 231.383 64.6742C232.111 65.0793 232.971 65.2818 233.964 65.2818C234.63 65.2818 235.237 65.1905 235.785 65.0079C236.333 64.8253 236.805 64.5545 237.2 64.1955C237.596 63.8366 237.894 63.3958 238.096 62.8732L243.605 63.2203C243.325 64.5079 242.755 65.6286 241.895 66.5825C241.034 67.5364 239.924 68.276 238.565 68.8012C237.205 69.3265 235.638 69.5891 233.863 69.5891ZM252.607 57.1444V69.1877H246.651V48.356H252.328V52.0342H252.574C253.055 50.8189 253.855 49.8569 254.974 49.148C256.093 48.4392 257.45 48.0848 259.046 48.0848C260.541 48.0848 261.844 48.4017 262.955 49.0355C264.066 49.6693 264.929 50.5712 265.544 51.7412C266.159 52.9111 266.464 54.3035 266.458 55.9183V69.1877H260.501V56.949C260.507 55.676 260.171 54.6796 259.492 53.9599C258.814 53.2402 257.878 52.8803 256.683 52.8803C255.881 52.8803 255.173 53.0489 254.56 53.3862C253.947 53.7234 253.47 54.2098 253.128 54.8455C252.787 55.4811 252.613 56.2474 252.607 57.1444ZM281.608 48.356V52.696H268.653V48.356H281.608ZM271.598 43.3651H277.555V62.7808C277.555 63.3161 277.64 63.7316 277.812 64.0273C277.984 64.323 278.221 64.5291 278.523 64.6457C278.826 64.7624 279.175 64.8207 279.57 64.8207C279.856 64.8207 280.139 64.7963 280.42 64.7475C280.701 64.6986 280.914 64.658 281.059 64.6255L282 68.9328C281.703 69.0251 281.283 69.1318 280.739 69.2529C280.195 69.374 279.537 69.4482 278.764 69.4753C277.327 69.5296 276.069 69.3447 274.991 68.9206C273.912 68.4966 273.074 67.8352 272.477 66.9364C271.88 66.0376 271.587 64.9092 271.598 63.5513V43.3651Z" fill="url(#paint0_linear_1_955)"/>
<defs>
<linearGradient id="paint0_linear_1_955" x1="282" y1="4.11926" x2="5.88373" y2="4.11926" gradientUnits="userSpaceOnUse">
<stop stop-color="#4063A2"/>
<stop offset="1" stop-color="#203251"/>
</linearGradient>
</defs>
</svg>
